<svg xmlns="http://www.w3.org/2000/svg" width="66" height="45" viewBox="0 0 66 45">
  <g fill="none" fill-rule="evenodd" transform="translate(3 3)">
    <path fill="#018592" fill-rule="nonzero" d="M23,20 L28.9524422,20 L28.9524422,25.3912821 L23,25.3912821 L23,20 L23,20 Z M31.0462725,20 L37,20 L37,25.3912821 L31.0462725,25.3912821 L31.0462725,20 L31.0462725,20 Z M23,27.6087179 L28.9524422,27.6087179 L28.9524422,33 L23,33 L23,27.6087179 L23,27.6087179 Z M31.0462725,27.6087179 L37,27.6087179 L37,33 L31.0462725,33 L31.0462725,27.6087179 L31.0462725,27.6087179 Z"/>
    <polygon stroke="#018592" stroke-width="3" points="30 0 44.944 19.925 60 40 0 40"/>
  </g>
</svg>
