<svg xmlns="http://www.w3.org/2000/svg" width="179" height="75" viewBox="0 0 179 75"><g fill="none" fill-rule="evenodd"><path fill="#018592" d="M15.943 10.786h4.631v4.053h-4.631v-4.053zm6.26 0h4.632v4.053h-4.632v-4.053zm-6.26 5.72h4.631v4.053h-4.631v-4.053zm6.26 0h4.632v4.053h-4.632v-4.053z"/><path fill="#373435" d="M43.066 49.999c4.51 0 8.363-2.631 10.367-6.515l-3.884-2.036c-1.221 2.505-3.414 4.29-6.578 4.29-4.26 0-7.423-3.32-7.423-7.485 0-4.26 3.164-7.549 7.517-7.549 2.976 0 4.95 1.472 6.296 3.853l3.728-2.38c-2.005-3.415-5.732-5.67-10.023-5.67-6.61 0-11.747 4.917-11.747 11.746 0 6.515 4.699 11.746 11.746 11.746zm20.484.062c2.412 0 4.605-1.033 5.952-2.756v2.38h4.228V31.362h-4.228v2.192c-1.347-1.597-3.477-2.568-5.889-2.568-4.636 0-9.083 3.477-9.083 9.553 0 6.014 4.604 9.522 9.02 9.522zm.69-3.884c-3.133 0-5.544-2.505-5.544-5.7 0-3.164 2.411-5.638 5.544-5.638 3.163 0 5.481 2.505 5.481 5.638 0 3.163-2.318 5.7-5.481 5.7zm18.793 3.884c5.231 0 7.518-3.414 7.518-5.982 0-3.853-3.446-4.918-6.453-5.513-2.756-.595-4.197-.908-4.197-2.13 0-1.034.94-1.973 2.944-1.973 1.754 0 3.133.814 3.884 2.098l3.602-1.816c-1.41-2.35-3.758-3.79-7.486-3.79-4.354 0-7.204 2.662-7.204 5.606 0 3.853 3.289 4.855 6.421 5.513 2.255.501 4.291.752 4.291 2.099 0 1.221-1.033 2.224-3.132 2.224-2.005 0-3.54-.94-4.416-2.663l-3.916 1.88c1.472 2.881 4.04 4.447 8.144 4.447zm19.514 0c4.417 0 8.99-3.508 8.99-9.522 0-6.076-4.417-9.553-9.021-9.553-2.506 0-4.667 1.096-5.952 2.819v-2.443h-4.197v26.75h4.197V47.523c1.285 1.629 3.477 2.537 5.983 2.537zm-.689-3.884c-3.164 0-5.45-2.537-5.45-5.7 0-3.133 2.286-5.638 5.45-5.638 3.101 0 5.513 2.474 5.513 5.638 0 3.195-2.412 5.7-5.513 5.7zm11.433 3.508h4.26V31.362h-4.26v18.323zm-.533-22.802c0 1.597.94 2.63 2.663 2.63 1.66 0 2.662-1.033 2.662-2.63 0-1.598-1.002-2.663-2.662-2.663-1.63 0-2.663 1.065-2.663 2.663zM128.42 50.06c2.411 0 4.604-1.033 5.95-2.756v2.38h4.23V31.362h-4.23v2.192c-1.346-1.597-3.476-2.568-5.888-2.568-4.635 0-9.083 3.477-9.083 9.553 0 6.014 4.604 9.522 9.02 9.522zm.689-3.884c-3.133 0-5.544-2.505-5.544-5.7 0-3.164 2.411-5.638 5.544-5.638 3.163 0 5.481 2.505 5.481 5.638 0 3.163-2.318 5.7-5.481 5.7z"/><path fill="#048592" d="M141.168 49.686h4.228V39.63c0-3.226 1.88-4.98 4.292-4.98 2.756 0 4.134 1.754 4.134 4.604v10.43h4.291V38.817c0-4.98-2.662-7.831-7.266-7.831-2.381 0-4.26 1.034-5.482 2.631v-2.255h-4.197v18.324z"/><path fill="#373435" fill-rule="nonzero" d="M151.063 58.17c.026.243-.028.403-.162.48-.134.076-.36.117-.68.124-.319.006-.73-.003-1.234-.029a21.248 21.248 0 0 0-1.809 0 26.25 26.25 0 0 0-1.885.144c-.62.07-1.241.169-1.867.296a.17.17 0 0 0-.076.02c-.013.115-.029.23-.048.344a10.07 10.07 0 0 1-.067.364c-.05.23-.099.456-.143.68-.045.222-.087.449-.125.679-.102.51-.179 1.017-.23 1.521-.05.504-.089 1.011-.114 1.522a21.817 21.817 0 0 0 .057 3.292c.051.612.124 1.238.22 1.876.096.638.195 1.256.297 1.856a.656.656 0 0 1-.105.479c-.096.14-.208.261-.335.363a2.247 2.247 0 0 1-.163.096.693.693 0 0 1-.22.077.416.416 0 0 1-.201-.01c-.058-.02-.099-.067-.125-.144a11.767 11.767 0 0 1-.392-1.665 35.877 35.877 0 0 1-.24-1.722c-.037-.294-.07-.584-.095-.871a10.526 10.526 0 0 0-.115-.871c-.064-.536-.15-1.07-.258-1.598a7.725 7.725 0 0 0-.488-1.541 3.996 3.996 0 0 0-.747-1.187 4.376 4.376 0 0 0-1.043-.832 4.984 4.984 0 0 0-1.263-.507 7.212 7.212 0 0 0-1.388-.211l-.076-.038c-.09-.026-.115-.096-.077-.21a.569.569 0 0 1 .153-.269.576.576 0 0 1 .25-.153l1.837-.574a78.718 78.718 0 0 1 1.856-.555 55.618 55.618 0 0 1 3.254-.852 22.913 22.913 0 0 1 3.311-.507c.09-.013.265-.026.527-.038.261-.013.558-.03.89-.048.331-.02.679-.032 1.043-.039a17.02 17.02 0 0 1 1.005.01c.306.013.558.038.756.077.197.038.303.095.315.172zm-9.302 3.6l.278-1.197a6.37 6.37 0 0 1 .392-1.177 38.28 38.28 0 0 0-2.45.65c-.803.243-1.614.48-2.43.709.28.064.548.134.803.21.256.077.51.185.766.326.612.331 1.094.753 1.445 1.263a6.68 6.68 0 0 1 .833 1.684c.038-.408.086-.82.143-1.234.058-.415.131-.827.22-1.235zm10.834 4.746c.076.051.099.118.067.2a.84.84 0 0 1-.106.202c-.293.421-.67.76-1.129 1.014a4.28 4.28 0 0 1-1.454.498 7.21 7.21 0 0 1-.25 1.12 4.192 4.192 0 0 1-.478 1.043 4.263 4.263 0 0 1-.402.526 2.67 2.67 0 0 1-.517.45 2.522 2.522 0 0 1-.602.297 1.54 1.54 0 0 1-.66.067c-.46-.052-.837-.23-1.13-.536a2.349 2.349 0 0 1-.593-1.11 5.074 5.074 0 0 1-.096-1.465c.038-.504.166-.966.383-1.387.14-.268.325-.524.555-.766.23-.242.491-.421.785-.536.05-.102.14-.217.267-.344.154-.154.326-.275.517-.364a1.5 1.5 0 0 1 .594-.144c.204-.006.398.03.583.106.185.076.354.204.507.382.218.256.37.552.46.89.09.339.134.674.134 1.005a3.254 3.254 0 0 0 1.158-.287c.364-.166.686-.395.966-.689.052-.05.122-.105.211-.163.09-.057.166-.06.23-.01zm-4.48 4.383c.256-.102.444-.274.565-.517.122-.242.22-.478.297-.708.064-.191.115-.39.153-.593.039-.205.07-.409.096-.613a4.412 4.412 0 0 1-.986-.191 2.898 2.898 0 0 1-.909-.479 1.25 1.25 0 0 1-.517-.784c-.178.114-.287.306-.325.574l-.096.689c-.025.332-.022.673.01 1.024.032.35.143.673.335.966.076.102.166.204.268.307.102.102.21.188.325.258.115.07.24.115.373.134a.732.732 0 0 0 .412-.067zm.518-4.536a1.11 1.11 0 0 0-.44-.249c-.192-.064-.358-.077-.498-.038.025 0 .076.013.153.038.076.025.118.064.124.115a.398.398 0 0 1-.028.182.729.729 0 0 1-.125.21.908.908 0 0 1-.2.182c.14.217.34.38.602.488.262.109.501.195.718.258l.249.058a2.594 2.594 0 0 0-.172-.68 1.53 1.53 0 0 0-.383-.564zm10.852.115c.153 0 .204.063.153.191-.179.472-.354.941-.526 1.407-.172.466-.36.928-.565 1.388a9.015 9.015 0 0 1-.698 1.282 3.99 3.99 0 0 1-.986 1.053c-.204.14-.434.242-.69.306a.877.877 0 0 1-.727-.134.893.893 0 0 1-.401-.517 3.942 3.942 0 0 1-.135-.65 4.444 4.444 0 0 1-.028-.652c.006-.216.016-.433.028-.65-.063.102-.13.198-.2.287-.07.09-.144.185-.22.287-.103.115-.22.236-.355.364a2.748 2.748 0 0 1-.43.335 1.764 1.764 0 0 1-.479.21 1.01 1.01 0 0 1-.497.01.98.98 0 0 1-.517-.287 1.39 1.39 0 0 1-.287-.489 2.876 2.876 0 0 1-.134-.593 4.879 4.879 0 0 1-.039-.584c-.025-.433-.022-.883.01-1.349.032-.466.137-.903.316-1.311.013-.051.064-.118.153-.201.09-.083.182-.15.278-.201a.474.474 0 0 1 .258-.067c.076.006.115.073.115.201.012.179 0 .36-.039.545a4.136 4.136 0 0 0-.076.546 3.58 3.58 0 0 0-.038.517v.497c0 .268.01.552.028.852.02.3.131.552.335.756.204.192.38.252.527.182.146-.07.296-.188.45-.354.395-.408.708-.874.937-1.397l.077-.651a5.8 5.8 0 0 1 .115-.65c.012-.065.063-.144.153-.24s.182-.176.277-.24a.429.429 0 0 1 .268-.086c.083.007.131.074.144.201.025.256.022.517-.01.785s-.06.53-.086.785l-.038.766c-.013.255-.02.51-.02.765a5.513 5.513 0 0 0 0 .65c.013.23.077.435.192.613.128.18.271.262.43.25a.752.752 0 0 0 .45-.211 2.99 2.99 0 0 0 .709-.91c.178-.35.338-.698.478-1.043.153-.382.313-.765.479-1.148.166-.383.338-.76.517-1.13a.464.464 0 0 1 .143-.181.472.472 0 0 1 .201-.105zm2.718.21a.84.84 0 0 1-.125.278.506.506 0 0 1-.22.182.59.59 0 0 1-.22.038c-.083 0-.118-.051-.105-.153.013-.115.026-.256.038-.421.013-.166 0-.323-.038-.47a.849.849 0 0 0-.201-.373c-.096-.102-.24-.146-.43-.134a.532.532 0 0 0-.345.125 1.436 1.436 0 0 0-.268.287 2.727 2.727 0 0 0-.21.354 6.793 6.793 0 0 1-.173.325 4.475 4.475 0 0 0-.498 1.455c-.038.255-.06.54-.066.852-.007.312.054.59.181.832.115.217.281.377.498.479.217.102.447.134.689.096.268-.051.52-.166.756-.345.236-.179.45-.35.641-.517.472-.395.919-.83 1.34-1.301a10.84 10.84 0 0 0 1.13-1.512c.037-.064.092-.134.162-.21.07-.077.15-.11.24-.097.076.013.12.048.133.106a.245.245 0 0 1-.038.182c-.192.306-.386.612-.584.918-.197.306-.411.6-.641.88-.46.562-.957 1.079-1.493 1.551-.217.204-.45.405-.699.603a4.523 4.523 0 0 1-.794.507c-.28.14-.57.24-.87.297-.3.057-.61.035-.93-.067-.318-.09-.55-.262-.698-.517a2.226 2.226 0 0 1-.277-.842 3.628 3.628 0 0 1 .01-.947c.044-.326.098-.61.162-.852a5.925 5.925 0 0 1 .794-1.79 4.302 4.302 0 0 1 1.388-1.368c.217-.128.453-.21.708-.25.255-.037.492.046.708.25.217.204.335.45.355.737.019.287.015.564-.01.832zm11.905-.268c.076-.013.134.003.172.048.038.045.045.105.02.182a201.23 201.23 0 0 1-.766 1.923 21.355 21.355 0 0 1-.862 1.867 30.852 30.852 0 0 1-1.129 2.028 8.645 8.645 0 0 1-.65.89c-.23.275-.511.501-.843.68a3.455 3.455 0 0 1-.411.172 1.33 1.33 0 0 1-.44.077c-.147 0-.288-.029-.422-.086a.744.744 0 0 1-.334-.297 1.214 1.214 0 0 1-.192-.526 2.092 2.092 0 0 1 0-.565l.038-.593a8.61 8.61 0 0 1 .058-.575c.064-.459.156-.909.277-1.349.121-.44.233-.884.335-1.33l.096-.47a4.13 4.13 0 0 0 .076-.554 1.592 1.592 0 0 0-.047-.526.854.854 0 0 0-.259-.422c-.191-.153-.389-.172-.593-.057a1.898 1.898 0 0 0-.565.507 5.568 5.568 0 0 0-.469.718l-.306.555c-.178.293-.348.587-.507.88-.16.294-.29.6-.392.92.012.19.022.382.028.573.007.192-.003.383-.028.575a.813.813 0 0 1-.173.43 1.234 1.234 0 0 1-.488.393.59.59 0 0 1-.182.047.378.378 0 0 1-.172-.019c-.05-.019-.083-.06-.096-.124a12.075 12.075 0 0 1-.239-1.589 45.631 45.631 0 0 1-.105-1.608 12.077 12.077 0 0 1-.01-1.272c.02-.428.048-.852.087-1.273.05-.421.114-.839.19-1.254.077-.414.18-.826.307-1.234.153-.536.341-1.063.565-1.58.223-.516.5-.998.832-1.444.281-.37.6-.718.957-1.044.358-.325.76-.57 1.206-.736a4.387 4.387 0 0 1 1.043-.192c.377-.025.699.077.967.306.255.205.399.438.43.699.032.262 0 .526-.095.794a3.134 3.134 0 0 1-.412.775c-.178.25-.35.463-.516.642a5.286 5.286 0 0 1-.833.775c-.3.223-.61.443-.928.66a4.33 4.33 0 0 0-.747.603c-.204.21-.332.5-.383.871-.05.242-.178.408-.382.498a.649.649 0 0 1-.24.038c-.095 0-.13-.051-.105-.153.064-.434.204-.823.421-1.168.217-.344.498-.65.842-.918.255-.205.517-.393.785-.565a7.36 7.36 0 0 0 .785-.584c.153-.127.316-.287.488-.478.172-.192.31-.393.411-.603.102-.21.14-.421.115-.632-.025-.21-.153-.392-.383-.545-.255-.166-.548-.214-.88-.144-.332.07-.613.182-.842.335a3.267 3.267 0 0 0-.574.584 5.28 5.28 0 0 0-.115.163c-.102.178-.201.363-.297.555-.095.19-.187.381-.277.574a12.192 12.192 0 0 0-.69 2.076 13.622 13.622 0 0 0-.325 2.173 41.7 41.7 0 0 0-.057 1.263c-.013.421-.007.842.019 1.263 0 .064.003.131.01.201.006.07.009.137.009.201l.306-.555c.128-.23.265-.472.412-.727.147-.255.303-.498.469-.727a4.82 4.82 0 0 1 .555-.642c.204-.197.434-.36.689-.488.166-.076.338-.121.517-.134.178-.013.35.01.516.067.166.058.31.15.431.278a.96.96 0 0 1 .24.497c.063.37.076.744.038 1.12-.039.377-.102.75-.192 1.12-.102.408-.195.817-.277 1.225-.083.408-.138.83-.163 1.263 0 .102-.006.236-.02.402a2.34 2.34 0 0 0 .01.469.78.78 0 0 0 .144.373c.076.102.198.14.364.115a.547.547 0 0 0 .248-.086c.064-.045.128-.105.192-.182.1-.113.202-.225.306-.335a5.58 5.58 0 0 0 .306-.354c.23-.293.434-.616.613-.967.178-.35.357-.692.536-1.024.28-.561.542-1.122.784-1.684.244-.564.493-1.125.747-1.684a.707.707 0 0 1 .182-.22.51.51 0 0 1 .239-.125z"/><path stroke="#048592" stroke-width="2.5" d="M177.122 68.256l.078-52.548-140.423-.02s-2.275-1.966-16.226-13.303c0 0-4.28 4.125-16.695 16.14l8.294-.054c0 26.818-.065 48.43-.065 48.43 84.165-.08 126.107.004 126.107.004"/></g></svg>