<svg xmlns="http://www.w3.org/2000/svg" width="179" height="75" viewBox="0 0 179 75">
    <g fill="none" fill-rule="evenodd" transform="translate(3.22 1.51)">
        <path fill="#018592" d="M0.0025,0.0061 L4.6342,0.0061 L4.6342,4.059 L0.0025,4.059 L0.0025,0.0061 Z M6.2634,0.0061 L10.8951,0.0061 L10.8951,4.059 L6.2634,4.059 L6.2634,0.0061 Z M0.0025,5.726 L4.6342,5.726 L4.6342,9.7789 L0.0025,9.7789 L0.0025,5.726 Z M6.2634,5.726 L10.8951,5.726 L10.8951,9.7789 L6.2634,9.7789 L6.2634,5.726 Z" transform="translate(12.72 9.27)"/>
        <g transform="translate(28.09 22.71)">
            <path fill="#373435" d="M11.7555,25.7787 C16.2659,25.7787 20.1186,23.1476 22.1233,19.2636 L18.2392,17.2277 C17.0177,19.7335 14.8251,21.5189 11.6615,21.5189 C7.4016,21.5189 4.238,18.1987 4.238,14.0328 C4.238,9.7729 7.4016,6.484 11.7555,6.484 C14.7311,6.484 16.7044,7.9562 18.0513,10.3367 L21.7787,7.9562 C19.7741,4.542 16.0467,2.2868 11.7555,2.2868 C5.1464,2.2868 0.0095,7.2044 0.0095,14.0328 C0.0095,20.5479 4.7079,25.7787 11.7555,25.7787 L11.7555,25.7787 Z M32.2405,25.8414 C34.6523,25.8414 36.8449,24.8077 38.1918,23.085 L38.1918,25.4655 L42.4203,25.4655 L42.4203,7.1418 L38.1918,7.1418 L38.1918,9.3344 C36.8449,7.7369 34.7149,6.7659 32.3031,6.7659 C27.6674,6.7659 23.2196,10.2427 23.2196,16.3193 C23.2196,22.3332 27.824,25.8414 32.2405,25.8414 L32.2405,25.8414 Z M32.9296,21.9574 C29.7973,21.9574 27.3855,19.4516 27.3855,16.2567 C27.3855,13.0931 29.7973,10.6186 32.9296,10.6186 C36.0931,10.6186 38.411,13.1244 38.411,16.2567 C38.411,19.4202 36.0931,21.9574 32.9296,21.9574 Z M51.7232,25.8414 C56.954,25.8414 59.2406,22.4272 59.2406,19.8588 C59.2406,16.0061 55.7951,14.9411 52.7881,14.346 C50.0317,13.7508 48.5909,13.4376 48.5909,12.216 C48.5909,11.1824 49.5306,10.2427 51.5352,10.2427 C53.2893,10.2427 54.6675,11.0571 55.4192,12.3413 L59.0213,10.5246 C57.6118,8.1754 55.2626,6.7346 51.5352,6.7346 C47.1814,6.7346 44.331,9.397 44.331,12.3413 C44.331,16.194 47.6199,17.1963 50.7522,17.8541 C53.0074,18.3553 55.0433,18.6059 55.0433,19.9527 C55.0433,21.1743 54.0097,22.1766 51.9111,22.1766 C49.9064,22.1766 48.3716,21.2369 47.4946,19.5142 L43.5793,21.3936 C45.0514,24.2752 47.6199,25.8414 51.7232,25.8414 L51.7232,25.8414 Z M71.2371,25.8414 C75.6536,25.8414 80.2267,22.3332 80.2267,16.3193 C80.2267,10.2427 75.8102,6.7659 71.2058,6.7659 C68.7,6.7659 66.5387,7.8622 65.2545,9.5849 L65.2545,7.1418 L61.0573,7.1418 L61.0573,33.8913 L65.2545,33.8913 L65.2545,23.3042 C66.5387,24.933 68.7313,25.8414 71.2371,25.8414 Z M70.548,21.9574 C67.3844,21.9574 65.0979,19.4202 65.0979,16.2567 C65.0979,13.1244 67.3844,10.6186 70.548,10.6186 C73.649,10.6186 76.0608,13.0931 76.0608,16.2567 C76.0608,19.4516 73.649,21.9574 70.548,21.9574 Z M81.9808,25.4655 L86.2407,25.4655 L86.2407,7.1418 L81.9808,7.1418 L81.9808,25.4655 L81.9808,25.4655 Z M81.4483,2.6626 C81.4483,4.2601 82.388,5.2937 84.1107,5.2937 C85.7708,5.2937 86.7731,4.2601 86.7731,2.6626 C86.7731,1.0652 85.7708,0.0002 84.1107,0.0002 C82.4819,0.0002 81.4483,1.0652 81.4483,2.6626 L81.4483,2.6626 Z M97.1096,25.8414 C99.5214,25.8414 101.714,24.8077 103.0609,23.085 L103.0609,25.4655 L107.2894,25.4655 L107.2894,7.1418 L103.0609,7.1418 L103.0609,9.3344 C101.714,7.7369 99.584,6.7659 97.1722,6.7659 C92.5365,6.7659 88.0887,10.2427 88.0887,16.3193 C88.0887,22.3332 92.6931,25.8414 97.1096,25.8414 L97.1096,25.8414 Z M97.7987,21.9574 C94.6664,21.9574 92.2546,19.4516 92.2546,16.2567 C92.2546,13.0931 94.6664,10.6186 97.7987,10.6186 C100.9622,10.6186 103.2801,13.1244 103.2801,16.2567 C103.2801,19.4202 100.9622,21.9574 97.7987,21.9574 Z"/>
            <path fill="#048592" d="M109.8579,25.4655 L114.0864,25.4655 L114.0864,15.4109 C114.0864,12.1847 115.9658,10.4307 118.3776,10.4307 C121.134,10.4307 122.5122,12.1847 122.5122,15.0351 L122.5122,25.4655 L126.8034,25.4655 L126.8034,14.5966 C126.8034,9.6163 124.141,6.7659 119.5366,6.7659 C117.156,6.7659 115.2767,7.7996 114.0551,9.397 L114.0551,7.1418 L109.8579,7.1418 L109.8579,25.4655 L109.8579,25.4655 Z"/>
        </g>
        <path fill="#373435" fill-rule="nonzero" d="M147.8434,56.6609 C147.8689,56.9033 147.8147,57.0628 147.6807,57.1394 C147.5467,57.216 147.3202,57.2574 147.0012,57.2638 C146.6822,57.2702 146.2707,57.2606 145.7667,57.2351 C145.2627,57.2096 144.6598,57.2096 143.958,57.2351 C143.32,57.2606 142.6915,57.3085 142.0727,57.3787 C141.4538,57.4488 140.8318,57.5477 140.2065,57.6753 C140.181,57.6753 140.1555,57.6817 140.13,57.6945 C140.117169,57.8097475 140.101196,57.9246236 140.0821,58.039 C140.063,58.1538 140.0407,58.275 140.0151,58.4026 C139.9641,58.6323 139.9162,58.8588 139.8716,59.0821 C139.8269,59.3054 139.7855,59.5319 139.7472,59.7616 C139.6451,60.272 139.5685,60.7792 139.5175,61.2832 C139.4665,61.7872 139.4282,62.2944 139.4027,62.8048 C139.3389,63.9022 139.358,64.9996 139.4601,66.0969 C139.5111,66.7094 139.5845,67.3346 139.6802,67.9726 C139.7759,68.6106 139.8748,69.2295 139.9769,69.8292 C140.0024,70.0079 139.9673,70.1674 139.8716,70.3077 C139.7759,70.4481 139.6642,70.5693 139.5366,70.6714 C139.4984,70.6969 139.4441,70.7288 139.3739,70.7671 C139.3038,70.8054 139.2304,70.8309 139.1538,70.8436 C139.0773,70.8564 139.0103,70.8532 138.9529,70.8341 C138.8954,70.8149 138.854,70.7671 138.8285,70.6905 C138.6626,70.1674 138.5318,69.6123 138.4361,69.0253 C138.3404,68.4384 138.2606,67.8642 138.1968,67.3027 C138.1586,67.0093 138.1267,66.719 138.1011,66.4319 C138.0756,66.1448 138.0373,65.8545 137.9863,65.561 C137.922481,65.0248978 137.836273,64.4916987 137.7279,63.9628 C137.6194,63.4333 137.4568,62.9197 137.2398,62.422 C137.0484,61.9627 136.7996,61.5671 136.4934,61.2354 C136.1871,60.9036 135.8394,60.6261 135.4502,60.4028 C135.0611,60.1795 134.64,60.0104 134.187,59.8956 C133.734,59.7807 133.2715,59.7105 132.7994,59.685 L132.7228,59.6467 C132.6335,59.6212 132.608,59.551 132.6462,59.4362 C132.6718,59.3341 132.7228,59.2448 132.7994,59.1682 C132.8759,59.0917 132.9589,59.0406 133.0482,59.0151 L134.8856,58.4409 C135.502166,58.2482894 136.12108,58.0632754 136.7422,57.8859 C137.8268,57.5669 138.9114,57.283 139.996,57.0341 C141.0806,56.7853 142.1843,56.6162 143.3072,56.5269 C143.3965,56.5142 143.572,56.5014 143.8336,56.4886 C144.0951,56.4759 144.3918,56.4599 144.7236,56.4408 C145.0553,56.4217 145.403,56.4089 145.7667,56.4025 C146.1304,56.3961 146.4653,56.3993 146.7716,56.4121 C147.0778,56.4248 147.3298,56.4504 147.5276,56.4886 C147.7254,56.5269 147.8306,56.5843 147.8434,56.6609 L147.8434,56.6609 Z M138.5414,60.2592 C138.6307,59.8764 138.7232,59.4777 138.8189,59.063 C138.9146,58.6483 139.0454,58.2559 139.2113,57.8859 C138.3819,58.0773 137.5652,58.2942 136.7613,58.5366 C135.9575,58.7791 135.1472,59.0151 134.3306,59.2448 C134.6113,59.3086 134.8792,59.3788 135.1344,59.4553 C135.3896,59.5319 135.6448,59.6404 135.9,59.7807 C136.5125,60.1125 136.9942,60.5336 137.3451,61.044 C137.696,61.5544 137.9735,62.1158 138.1777,62.7283 C138.216,62.32 138.2638,61.9085 138.3212,61.4938 C138.3787,61.0791 138.452,60.6675 138.5414,60.2592 Z M149.3746,65.0059 C149.4512,65.057 149.4735,65.124 149.4416,65.2069 C149.4097,65.2899 149.3746,65.3568 149.3364,65.4079 C149.0429,65.829 148.6665,66.1671 148.2071,66.4223 C147.7477,66.6775 147.2629,66.8434 146.7525,66.9199 C146.7014,67.29 146.6185,67.6632 146.5036,68.0396 C146.3888,68.4161 146.2293,68.7638 146.0251,69.0828 C145.9103,69.2614 145.7763,69.4369 145.6232,69.6091 C145.470971,69.780611 145.297274,69.9317894 145.1064,70.0589 C144.915,70.1865 144.714,70.2854 144.5035,70.3556 C144.293,70.4258 144.0729,70.4481 143.8432,70.4226 C143.3838,70.3715 143.0074,70.1929 142.7139,69.8866 C142.4204,69.5804 142.2227,69.2104 142.1206,68.7765 C142.0185,68.3044 141.9866,67.8163 142.0249,67.3123 C142.0632,66.8083 142.1908,66.3457 142.4077,65.9247 C142.548,65.6567 142.7331,65.4015 142.9627,65.1591 C143.1924,64.9166 143.454,64.738 143.7475,64.6231 C143.7985,64.5211 143.8878,64.4062 144.0154,64.2786 C144.1686,64.1255 144.3408,64.0043 144.5322,63.915 C144.7236,63.8256 144.9214,63.7778 145.1256,63.7714 C145.3297,63.765 145.5243,63.8001 145.7093,63.8767 C145.8943,63.9532 146.0634,64.0808 146.2165,64.2595 C146.4335,64.5147 146.5866,64.8114 146.6759,65.1495 C146.7652,65.4876 146.8099,65.8226 146.8099,66.1543 C147.2182,66.1288 147.6042,66.0331 147.9678,65.8672 C148.3315,65.7014 148.6537,65.4717 148.9344,65.1782 C148.9855,65.1272 149.0556,65.0729 149.145,65.0155 C149.2343,64.9581 149.3108,64.9549 149.3746,65.0059 L149.3746,65.0059 Z M144.8959,69.389 C145.1511,69.2869 145.3393,69.1147 145.4605,68.8722 C145.5817,68.6298 145.6806,68.3937 145.7572,68.164 C145.821,67.9726 145.872,67.7749 145.9103,67.5707 C145.9486,67.3665 145.9805,67.1624 146.006,66.9582 C145.6742,66.9327 145.3457,66.8689 145.0203,66.7668 C144.6949,66.6647 144.3919,66.5052 144.1111,66.2883 C143.8304,66.0842 143.6582,65.8226 143.5944,65.5036 C143.4157,65.6184 143.3073,65.8098 143.269,66.0778 C143.2307,66.3457 143.1988,66.5754 143.1733,66.7668 C143.1478,67.0986 143.1509,67.4399 143.1828,67.7908 C143.2147,68.1417 143.3264,68.4639 143.5178,68.7574 C143.5944,68.8595 143.6837,68.9615 143.7858,69.0636 C143.8878,69.1657 143.9963,69.2518 144.1111,69.322 C144.226,69.3922 144.3504,69.4369 144.4844,69.456 C144.6183,69.4751 144.7555,69.4528 144.8959,69.389 L144.8959,69.389 Z M145.4127,64.8528 C145.3106,64.7507 145.1638,64.6678 144.9724,64.604 C144.781,64.5402 144.6152,64.5274 144.4748,64.5657 C144.5003,64.5657 144.5514,64.5785 144.6279,64.604 C144.7045,64.6295 144.7459,64.6678 144.7523,64.7188 C144.7587,64.7699 144.7491,64.8305 144.7236,64.9007 C144.6981,64.9709 144.6566,65.041 144.5992,65.1112 C144.5418,65.1814 144.4748,65.242 144.3982,65.293 C144.5386,65.51 144.7396,65.6727 145.0011,65.7811 C145.2627,65.8896 145.502,65.9757 145.7189,66.0395 L145.9677,66.0969 C145.9422,65.8672 145.8848,65.6408 145.7955,65.4175 C145.7061,65.1942 145.5785,65.0059 145.4127,64.8528 L145.4127,64.8528 Z M156.265,64.9677 C156.4181,64.9677 156.4692,65.0315 156.4181,65.1591 C156.2395,65.6312 156.064,66.1001 155.8918,66.5659 C155.7195,67.0316 155.5313,67.4941 155.3271,67.9535 C155.1357,68.3873 154.9029,68.8148 154.6285,69.2359 C154.3542,69.657 154.0256,70.0079 153.6428,70.2886 C153.4387,70.4289 153.209,70.531 152.9538,70.5948 C152.6986,70.6586 152.4561,70.614 152.2265,70.4608 C152.0223,70.3332 151.8883,70.161 151.8245,69.9441 C151.7607,69.7271 151.7161,69.5102 151.6905,69.2933 C151.665025,69.0773609 151.655433,68.8598433 151.6618,68.6425 C151.6682,68.4256 151.6778,68.2087 151.6905,67.9918 C151.6267,68.0939 151.5597,68.1896 151.4896,68.2789 C151.4194,68.3682 151.346,68.4639 151.2695,68.566 C151.1674,68.6808 151.0493,68.802 150.9154,68.9296 C150.7814,69.0572 150.6378,69.1689 150.4847,69.2646 C150.3316,69.3603 150.1721,69.4305 150.0062,69.4751 C149.8403,69.5198 149.6745,69.523 149.5086,69.4847 C149.2917,69.4337 149.1194,69.338 148.9918,69.1976 C148.8642,69.0572 148.7685,68.8946 148.7047,68.7095 C148.6409,68.5245 148.5962,68.3267 148.5707,68.1162 C148.5452,67.9057 148.5324,67.7111 148.5324,67.5324 C148.5069,67.0986 148.5101,66.6488 148.542,66.1831 C148.5739,65.7173 148.6792,65.2803 148.8578,64.872 C148.8706,64.8209 148.9216,64.7539 149.0109,64.671 C149.1003,64.5881 149.1928,64.5211 149.2885,64.47 C149.3842,64.419 149.4703,64.3967 149.5469,64.403 C149.6234,64.4094 149.6617,64.4764 149.6617,64.604 C149.6745,64.7826 149.6617,64.9645 149.6234,65.1495 C149.5851,65.3345 149.5596,65.5163 149.5469,65.695 C149.5213,65.8736 149.5086,66.0459 149.5086,66.2118 L149.5086,66.7094 C149.5086,66.9774 149.5181,67.2613 149.5373,67.5611 C149.5564,67.861 149.6681,68.113 149.8722,68.3172 C150.0764,68.5086 150.2518,68.5692 150.3986,68.499 C150.5453,68.4288 150.6953,68.3108 150.8484,68.1449 C151.2439,67.7366 151.5566,67.2708 151.7862,66.7477 C151.8118,66.5308 151.8373,66.3138 151.8628,66.0969 C151.8883,65.88 151.9266,65.6631 151.9776,65.4462 C151.9904,65.3824 152.0414,65.3026 152.1308,65.2069 C152.2201,65.1112 152.3126,65.0315 152.4083,64.9677 C152.504,64.9039 152.5933,64.8752 152.6762,64.8815 C152.7592,64.8879 152.807,64.9549 152.8198,65.0825 C152.8453,65.3377 152.8421,65.5993 152.8102,65.8672 C152.7783,66.1352 152.7496,66.3968 152.7241,66.652 C152.7113,66.9072 152.6986,67.1624 152.6858,67.4176 C152.6731,67.6728 152.6667,67.928 152.6667,68.1832 C152.6539,68.3873 152.6539,68.6043 152.6667,68.8339 C152.6794,69.0636 152.7432,69.2678 152.8581,69.4464 C152.9857,69.6251 153.1292,69.708 153.2887,69.6952 C153.4482,69.6825 153.5982,69.6123 153.7385,69.4847 C154.032,69.2295 154.2681,68.9265 154.4467,68.5756 C154.6253,68.2247 154.7848,67.8769 154.9252,67.5324 C155.0783,67.1496 155.2378,66.7668 155.4037,66.384 C155.5696,66.0012 155.7418,65.6248 155.9205,65.2548 C155.946,65.191 155.9938,65.1304 156.064,65.0729 C156.1342,65.0155 156.2012,64.9804 156.265,64.9677 L156.265,64.9677 Z M158.9829,65.1782 C158.9574,65.2803 158.9159,65.3728 158.8585,65.4557 C158.8011,65.5387 158.7277,65.5993 158.6384,65.6376 C158.5746,65.6631 158.5012,65.6758 158.4183,65.6758 C158.3353,65.6758 158.3002,65.6248 158.313,65.5227 C158.3258,65.4079 158.3385,65.2675 158.3513,65.1016 C158.364,64.9358 158.3513,64.7795 158.313,64.6327 C158.2747,64.486 158.2077,64.3616 158.112,64.2595 C158.0163,64.1574 157.8728,64.1127 157.6814,64.1255 C157.5538,64.1255 157.4389,64.167 157.3369,64.2499 C157.2348,64.3329 157.1455,64.4286 157.0689,64.537 C156.9923,64.6455 156.9222,64.7635 156.8584,64.8911 C156.7946,65.0187 156.7371,65.1272 156.6861,65.2165 C156.4309,65.6886 156.265,66.1735 156.1885,66.6711 C156.1502,66.9263 156.1278,67.2102 156.1215,67.5229 C156.1151,67.8355 156.1757,68.113 156.3033,68.3554 C156.4181,68.5724 156.584,68.7319 156.8009,68.8339 C157.0179,68.936 157.2475,68.9679 157.49,68.9296 C157.7579,68.8786 158.0099,68.7638 158.246,68.5851 C158.4821,68.4065 158.6958,68.2342 158.8872,68.0683 C159.3593,67.6728 159.8059,67.2389 160.227,66.7668 C160.6481,66.2947 161.0245,65.7907 161.3563,65.2548 C161.3945,65.191 161.4488,65.1208 161.5189,65.0442 C161.5891,64.9677 161.6689,64.9358 161.7582,64.9485 C161.8348,64.9613 161.8794,64.9964 161.8922,65.0538 C161.9049,65.1112 161.8922,65.1718 161.8539,65.2356 C161.6625,65.5419 161.4679,65.8481 161.2701,66.1543 C161.07305,66.4595935 160.858978,66.7535581 160.6289,67.0348 C160.1696,67.5962 159.6719,68.113 159.136,68.5851 C158.9191,68.7893 158.6862,68.9903 158.4374,69.188 C158.1886,69.3858 157.9238,69.5549 157.6431,69.6952 C157.3624,69.8356 157.0721,69.9345 156.7722,69.9919 C156.4724,70.0493 156.1629,70.027 155.8439,69.9249 C155.5249,69.8356 155.2921,69.6633 155.1453,69.4081 C154.9986,69.1529 154.9061,68.8722 154.8678,68.566 C154.8295,68.2597 154.8327,67.9439 154.8774,67.6186 C154.922,67.2932 154.9763,67.0093 155.0401,66.7668 C155.1932,66.1543 155.458,65.5578 155.8344,64.9772 C156.2108,64.3967 156.6733,63.9405 157.222,63.6087 C157.4389,63.4811 157.675,63.3982 157.9302,63.3599 C158.1854,63.3216 158.4215,63.4046 158.6384,63.6087 C158.8553,63.8129 158.9733,64.0585 158.9925,64.3456 C159.0116,64.6327 159.0084,64.9102 158.9829,65.1782 L158.9829,65.1782 Z M170.8879,64.9102 C170.9645,64.8975 171.0219,64.9134 171.0602,64.9581 C171.0985,65.0028 171.1049,65.0634 171.0793,65.1399 C170.8274,65.7824086 170.572197,66.4236171 170.3137,67.0635 C170.0585,67.6951 169.7714,68.3172 169.4524,68.9296 C169.0952,69.6314 168.7187,70.3077 168.3232,70.9585 C168.119,71.2775 167.9021,71.5741 167.6724,71.8485 C167.4427,72.1228 167.162,72.3493 166.8303,72.528 C166.7027,72.5918 166.5655,72.6492 166.4187,72.7002 C166.272,72.7513 166.1253,72.7768 165.9785,72.7768 C165.8318,72.7768 165.6914,72.7481 165.5574,72.6906 C165.4235,72.6332 165.3118,72.5343 165.2225,72.394 C165.1204,72.2409 165.0566,72.0654 165.0311,71.8676 C165.0056,71.6698 165.0056,71.4816 165.0311,71.303 C165.0439,71.0988 165.0566,70.9011 165.0694,70.7097 C165.0821,70.5183 165.1013,70.3269 165.1268,70.1355 C165.1906,69.6761 165.2831,69.2263 165.4043,68.7861 C165.5255,68.3459 165.6372,67.9025 165.7393,67.4559 C165.7648,67.3283 165.7967,67.172 165.835,66.9869 C165.8733,66.8019 165.8988,66.6169 165.9115,66.4319 C165.9243,66.2469 165.9083,66.0714 165.8637,65.9055 C165.819,65.7396 165.7329,65.5993 165.6053,65.4844 C165.4139,65.3313 165.2161,65.3122 165.012,65.427 C164.8078,65.5419 164.6196,65.7109 164.4473,65.9342 C164.2751,66.1575 164.1188,66.3968 163.9784,66.652 C163.838,66.9072 163.736,67.0922 163.6722,67.207 C163.4935,67.5005 163.3244,67.794 163.1649,68.0875 C163.0054,68.381 162.8747,68.6872 162.7726,69.0062 C162.7853,69.1976 162.7949,69.389 162.8013,69.5804 C162.8077,69.7718 162.7981,69.9632 162.7726,70.1546 C162.7598,70.3077 162.7024,70.4513 162.6003,70.5853 C162.4982,70.7192 162.3834,70.8245 162.2558,70.9011 C162.2175,70.9266 162.1697,70.9521 162.1122,70.9776 C162.0548,71.0031 161.9942,71.0191 161.9304,71.0255 C161.8666,71.0318 161.8092,71.0255 161.7582,71.0063 C161.7071,70.9872 161.6752,70.9457 161.6625,70.8819 C161.5476,70.3588 161.4679,69.8292 161.4232,69.2933 C161.3786,68.7574 161.3435,68.2215 161.3179,67.6855 C161.2924,67.2645 161.2892,66.8402 161.3084,66.4127 C161.3275,65.9853 161.3562,65.561 161.3945,65.1399 C161.4455,64.7188 161.5093,64.301 161.5859,63.8863 C161.6625,63.4716 161.7645,63.06 161.8921,62.6517 C162.0453,62.1158 162.2335,61.5895 162.4568,61.0727 C162.6801,60.5559 162.9576,60.0742 163.2894,59.6276 C163.5701,59.2576 163.8891,58.9099 164.2464,58.5845 C164.6036,58.2591 165.0056,58.0135 165.4522,57.8476 C165.7712,57.7455 166.1189,57.6817 166.4953,57.6562 C166.8717,57.6307 167.1939,57.7327 167.4619,57.9624 C167.7171,58.1666 167.8606,58.3995 167.8925,58.661 C167.9244,58.9226 167.8925,59.1874 167.7968,59.4553 C167.7011,59.7233 167.564,59.9817 167.3853,60.2305 C167.2067,60.4793 167.0344,60.6931 166.8685,60.8717 C166.6133,61.1652 166.3358,61.4236 166.0359,61.6469 C165.7361,61.8702 165.4267,62.0903 165.1077,62.3072 C164.8142,62.4986 164.5654,62.6996 164.3612,62.9101 C164.157,63.1207 164.0294,63.4109 163.9784,63.781 C163.9274,64.0234 163.7998,64.1893 163.5956,64.2786 C163.5318,64.3041 163.452,64.3169 163.3563,64.3169 C163.2606,64.3169 163.2256,64.2659 163.2511,64.1638 C163.3149,63.7299 163.4552,63.3408 163.6722,62.9962 C163.8891,62.6517 164.1698,62.3455 164.5143,62.0775 C164.7695,61.8734 165.0311,61.6852 165.2991,61.5129 C165.567,61.3406 165.8286,61.146 166.0838,60.9291 C166.2369,60.8015 166.3996,60.642 166.5719,60.4506 C166.7441,60.2592 166.8813,60.0583 166.9834,59.8477 C167.0855,59.6372 167.1237,59.4266 167.0982,59.2161 C167.0727,59.0056 166.9451,58.8237 166.7154,58.6706 C166.4602,58.5047 166.1667,58.4569 165.835,58.5271 C165.5032,58.5972 165.2225,58.7089 164.9928,58.862 C164.9418,58.9003 164.8812,58.9513 164.811,59.0151 C164.7408,59.0789 164.6706,59.1491 164.6004,59.2257 C164.5303,59.3022 164.4697,59.3756 164.4186,59.4458 C164.3676,59.516 164.3293,59.5702 164.3038,59.6085 C164.2017,59.7871 164.1028,59.9721 164.0071,60.1635 C163.91201,60.3536375 163.819502,60.5450551 163.7296,60.7377 C163.4361,61.414 163.2064,62.1062 163.0405,62.8144 C162.8747,63.5226 162.7662,64.2467 162.7152,64.9868 C162.6896,65.4079 162.6705,65.829 162.6577,66.25 C162.645,66.6711 162.6514,67.0922 162.6769,67.5133 C162.6769,67.5771 162.6801,67.6441 162.6864,67.7143 C162.6928,67.7844 162.696,67.8514 162.696,67.9152 L163.0023,67.3602 C163.1299,67.1305 163.267,66.888 163.4138,66.6328 C163.5605,66.3776 163.7168,66.1352 163.8827,65.9055 C164.048535,65.6758725 164.234287,65.4613089 164.4378,65.2643 C164.6419,65.0666 164.8716,64.9039 165.1268,64.7763 C165.2927,64.6997 165.4649,64.655 165.6436,64.6423 C165.8222,64.6295 165.9945,64.6519 166.1604,64.7093 C166.3262,64.7667 166.4698,64.8592 166.591,64.9868 C166.7122,65.1144 166.792,65.2803 166.8303,65.4844 C166.8941,65.8545 166.9068,66.2277 166.8685,66.6041 C166.8303,66.9806 166.7665,67.3538 166.6771,67.7238 C166.5751,68.1321 166.4825,68.5405 166.3996,68.9488 C166.3167,69.3571 166.2624,69.7782 166.2369,70.212 C166.2369,70.3141 166.2305,70.4481 166.2178,70.614 C166.205,70.7798 166.2082,70.9361 166.2273,71.0829 C166.2465,71.2296 166.2943,71.354 166.3709,71.4561 C166.4475,71.5582 166.5687,71.5965 166.7346,71.571 C166.8366,71.5582 166.9196,71.5295 166.9834,71.4848 C167.0472,71.4402 167.111,71.3796 167.1748,71.303 C167.275293,71.189905 167.37737,71.0782273 167.481,70.968 C167.5831,70.8596 167.6852,70.7416 167.7873,70.614 C168.0169,70.3205 168.2211,69.9983 168.3997,69.6474 C168.5784,69.2965 168.757,68.9552 168.9357,68.6234 C169.2164,68.062 169.478,67.5005 169.7204,66.9391 C169.96386,66.3753004 170.212705,65.8138415 170.4669,65.2548 C170.5051,65.1782 170.5657,65.1048 170.6487,65.0347 C170.7316,64.9645 170.8114,64.923 170.8879,64.9102 L170.8879,64.9102 Z"/>
        <path stroke="#048592" stroke-width="2.5" d="M173.2664,65.871 C173.2664,65.871 173.2901,49.0609 173.3445,13.323 L32.9212,13.3023 C32.9212,13.3023 30.6459,11.337 16.6955,0 C16.6955,0 12.4147,4.1245 1.42108547e-14,16.1397 C5.5297,16.104 8.2945,16.0862 8.2945,16.0862 C8.2948,42.9043 8.2289,64.5155 8.2289,64.5155 C92.394,64.4357 134.3361,64.5198 134.3361,64.5198" transform="translate(.636 .875)"/>
    </g>
</svg>
