<svg xmlns="http://www.w3.org/2000/svg" width="552" height="326" viewBox="0 0 552 326">
  <g fill="none" fill-rule="evenodd" transform="translate(6.447 6.508)">
    <polygon stroke="#54B2BE" stroke-width="7.087" points="93.337 0 201.33 130.363 540.401 130.989 541.148 315.108 73.377 315.108 73.764 153.987 0 154.275"/>
    <polygon fill="#54B2BE" points="75.588 97.905 98.337 97.905 98.337 77.999 75.588 77.999"/>
    <polygon fill="#54B2BE" points="106.339 97.905 129.088 97.905 129.088 77.999 106.339 77.999"/>
    <polygon fill="#54B2BE" points="75.588 125.999 98.337 125.999 98.337 106.093 75.588 106.093"/>
    <polygon fill="#54B2BE" points="106.339 125.999 129.088 125.999 129.088 106.093 106.339 106.093"/>
    <g fill-rule="nonzero" transform="translate(129.553 189.492)">
      <path fill="#1A1919" d="M55.6219341,63.7723032 C49.4079691,66.5469108 41.9946756,67.9341938 33.3818311,67.9341938 C22.8614438,67.9341938 14.6678036,64.9717666 8.80066455,59.0468232 C2.93352551,53.1218799 0,44.8559853 0,34.2488916 C0,23.4394827 2.95520181,15.1230102 8.86569409,9.29922437 C14.7761864,3.47543857 23.2082659,0.563589355 34.1621855,0.563589355 C41.1565089,0.563589355 48.1073748,1.38728864 55.0149917,3.03471191 L55.0149917,13.4827915 C47.1825056,10.737086 40.6218131,9.36425391 35.3327173,9.36425391 C28.5696112,9.36425391 23.3528491,11.5102073 19.6822744,15.8021785 C16.0116997,20.0941496 14.1764399,26.1851891 14.1764399,34.0754795 C14.1764399,41.8212591 16.148983,47.8617205 20.0941282,52.1970449 C24.0392734,56.5323693 29.5233765,58.699999 36.5466021,58.699999 C42.8472735,58.699999 49.205654,57.1104039 55.6219341,53.931166 L55.6219341,63.7723032 Z M90.5652741,61.2144746 C86.287754,65.3474839 81.70683,67.4139575 76.8223645,67.4139575 C72.660453,67.4139575 69.2789507,66.1422814 66.6777561,63.5988911 C64.0765614,61.0555008 62.7759836,57.7607037 62.7759836,53.7144009 C62.7759836,48.4542073 64.8785844,44.4007397 69.0838491,41.5538767 C73.2891138,38.7070137 79.3078989,37.2836035 87.140385,37.2836035 L90.5652741,37.2836035 L90.5652741,32.9483008 C90.5652741,28.006031 87.7473555,25.5349331 82.1114338,25.5349331 C77.1113596,25.5349331 72.053557,26.9511178 66.9378742,29.7835298 L66.9378742,20.9395122 C72.7472089,18.7429478 78.498653,17.6446821 84.1923791,17.6446821 C96.6492112,17.6446821 102.877534,22.6013287 102.877534,32.5147705 L102.877534,53.5843418 C102.877534,57.3127208 104.076956,59.1768823 106.475835,59.1768823 C106.909368,59.1768823 107.472951,59.1190789 108.166603,59.0034702 L108.470074,66.2000728 C105.753271,67.0093333 103.354428,67.4139575 101.273472,67.4139575 C96.0132783,67.4139575 92.6317759,65.3474839 91.1288635,61.2144746 L90.5652741,61.2144746 Z M90.5652741,54.3213433 L90.5652741,44.6536182 L87.5305622,44.6536182 C79.2356415,44.6536182 75.0882434,47.2547738 75.0882434,52.4571631 C75.0882434,54.220195 75.6879542,55.7014086 76.887394,56.9008484 C78.0868337,58.1002881 79.5680474,58.699999 81.3310793,58.699999 C84.3369042,58.699999 87.4149384,57.2404617 90.5652741,54.3213433 Z M118.181953,64.8127759 L118.181953,55.4051689 C124.540428,58.0641679 129.973953,59.3936475 134.482691,59.3936475 C139.742884,59.3936475 142.372942,57.6017402 142.372942,54.0178721 C142.372942,51.7056991 140.205312,49.682578 135.869988,47.9484482 L131.534685,46.2143271 C126.823632,44.3067844 123.456581,42.2547616 121.43343,40.0581973 C119.410278,37.8616329 118.398718,35.1448704 118.398718,31.9078281 C118.398718,27.3990907 120.118371,23.8947561 123.557728,21.394719 C126.997085,18.8946819 131.809223,17.6446821 137.994286,17.6446821 C141.867176,17.6446821 146.477002,18.2082658 151.823902,19.3354502 L151.823902,28.3528799 C146.679317,26.5609458 142.416312,25.6649922 139.034759,25.6649922 C133.716761,25.6649922 131.057802,27.3123908 131.057802,30.6072373 C131.057802,32.7748995 133.023119,34.6101593 136.953813,36.1130718 L140.682174,37.5437217 C146.260291,39.6535796 150.140348,41.7923075 152.322462,43.9599697 C154.504575,46.1276319 155.595615,48.9166488 155.595615,52.327104 C155.595615,56.8069392 153.738679,60.4413317 150.024751,63.2303904 C146.310823,66.0194491 141.477009,67.4139575 135.523163,67.4139575 C129.800535,67.4139575 124.020189,66.5469056 118.181953,64.8127759 Z M169.642796,83.4545776 L169.642796,18.7285078 L182.475292,18.7285078 L182.475292,27.7025845 C185.770139,20.9972827 190.957999,17.6446821 198.039029,17.6446821 C203.761657,17.6446821 208.263101,19.7400575 211.543497,23.9308711 C214.823892,28.1216847 216.464066,33.8875797 216.464066,41.228729 C216.464066,49.2057259 214.614355,55.5641063 210.914878,60.304061 C207.215401,65.0440157 202.258755,67.4139575 196.04479,67.4139575 C191.044715,67.4139575 186.521595,65.4486399 182.475292,61.5179458 L182.475292,83.4545776 L169.642796,83.4545776 Z M182.475292,53.887813 C185.596726,57.3560725 188.920425,59.0901763 192.446488,59.0901763 C195.596824,59.0901763 198.111275,57.5656101 199.989915,54.5164319 C201.868556,51.4672537 202.807862,47.3993353 202.807862,42.3125547 C202.807862,32.5725258 199.672024,27.7025845 193.400255,27.7025845 C189.614072,27.7025845 185.972454,30.1447806 182.475292,35.0292461 L182.475292,53.887813 Z M228.473654,66.3301318 L228.473654,18.7285078 L241.30615,18.7285078 L241.30615,66.3301318 L228.473654,66.3301318 Z M228.473654,10.7081978 L228.473654,0 L241.30615,0 L241.30615,10.7081978 L228.473654,10.7081978 Z M280.671499,61.2144746 C276.393979,65.3474839 271.813055,67.4139575 266.928589,67.4139575 C262.766678,67.4139575 259.385176,66.1422814 256.783981,63.5988911 C254.182786,61.0555008 252.882208,57.7607037 252.882208,53.7144009 C252.882208,48.4542073 254.984809,44.4007397 259.190074,41.5538767 C263.395339,38.7070137 269.414124,37.2836035 277.24661,37.2836035 L280.671499,37.2836035 L280.671499,32.9483008 C280.671499,28.006031 277.85358,25.5349331 272.217659,25.5349331 C267.217585,25.5349331 262.159782,26.9511178 257.044099,29.7835298 L257.044099,20.9395122 C262.853434,18.7429478 268.604878,17.6446821 274.298604,17.6446821 C286.755436,17.6446821 292.983759,22.6013287 292.983759,32.5147705 L292.983759,53.5843418 C292.983759,57.3127208 294.183181,59.1768823 296.58206,59.1768823 C297.015592,59.1768823 297.579176,59.1190789 298.272828,59.0034702 L298.576299,66.2000728 C295.859496,67.0093333 293.460652,67.4139575 291.379697,67.4139575 C286.119503,67.4139575 282.738001,65.3474839 281.235088,61.2144746 L280.671499,61.2144746 Z M280.671499,54.3213433 L280.671499,44.6536182 L277.636787,44.6536182 C269.341866,44.6536182 265.194468,47.2547738 265.194468,52.4571631 C265.194468,54.220195 265.794179,55.7014086 266.993619,56.9008484 C268.193059,58.1002881 269.674272,58.699999 271.437304,58.699999 C274.443129,58.699999 277.521163,57.2404617 280.671499,54.3213433 Z"/>
      <path fill="#63BFCA" d="M313.855109,66.3301318 L313.855109,18.7285078 L326.687605,18.7285078 L326.687605,27.7025845 C330.878418,20.9972827 336.283042,17.6446821 342.901637,17.6446821 C347.150255,17.6446821 350.502855,18.9886125 352.959539,21.6765137 C355.416223,24.3644148 356.644547,28.0349344 356.644547,32.6881826 L356.644547,66.3301318 L343.81205,66.3301318 L343.81205,35.8529536 C343.81205,30.4482492 342.020143,27.7459375 338.436275,27.7459375 C334.36107,27.7459375 330.444886,30.6216596 326.687605,36.3731899 L326.687605,66.3301318 L313.855109,66.3301318 Z"/>
    </g>
  </g>
</svg>
